<?xml version="1.0" encoding="UTF-8"?>
<svg id="Layer_2" data-name="Layer 2" xmlns="http://www.w3.org/2000/svg" viewBox="0 0 571.78 420.33">
  <defs>
    <style>
      .cls-1 {
        fill: #fff;
      }
    </style>
  </defs>
  <g id="Layer_1-2" data-name="Layer 1">
    <g>
      <path class="cls-1" d="M488.8,1.73c-23.4,5-47.3,16-153,70.6-48.6,25-53.2,27.5-52.3,27.5.4,0,5.7-.5,11.7-1l11-1.1,64-32.2c35.3-17.8,71.3-35.6,80.1-39.6,19.2-8.8,39-15.5,50.3-17.2,7.3-1,9.2-.9,14.8.6,3.5.9,6.4,2,6.4,2.4,0,.3-2.8,1.5-6.1,2.6-3.4,1-9,3.6-12.4,5.6-5.8,3.4-6.5,3.6-8.4,2.2-2.5-1.7-2.6-1.3-.6,3.4,2.8,6.6,2.7,6.6,13.8,1.2,12.7-6.1,23.4-8.9,34.1-8.9,8.8,0,13.8,2,15.1,5.9.9,3-3.9,11.6-10.4,18.4-15.6,16.4-34.8,27.5-126.6,73.5-70.1,35-85.6,42.2-122.5,56.7-56.5,22.1-135.7,39.3-190,41.2l-16.5.5-2-3.8-2-3.9-20.5-.5-20.5-.5,4.9-3.2c2.7-1.8,6.5-3.5,8.5-3.9,2-.3,16.7-3.2,32.6-6.3,16-3.2,29.1-5.7,29.2-5.6.2.1-5.6,4.8-12.7,10.4-12.6,10-16.9,14.6-9.2,10,14.6-9,60.4-40,59.9-40.6-.2-.1-4,1.1-8.5,2.7-15.4,5.6-27.3,8.4-74.2,17.6l-23.5,4.7-14.8,10.5c-8.1,5.8-14.6,10.6-14.5,10.7.2.1,12,.6,26.3.9,28.3.8,28,.7,31.1,6.8,1.4,2.8,1.6,2.8,11.3,2.8,26.5,0,62.8-4,95.6-10.5,71.4-14.2,121.8-32.4,214.2-77.5l25.2-12.3,5.1,5.4c2.7,2.9,5,5.4,5,5.5,0,1.6-43.8,16.8-51.8,17.9-2.8.4-5.2,1-5.2,1.3,0,.4,1.6,2,3.6,3.6,2.8,2.2,4.3,2.7,6.8,2.3,4.2-.7,41.7-14.3,48.1-17.4,16-7.9,22.5-18.3,18.1-28.8l-1.4-3.3,25.1-12.5c37.6-18.7,56.4-30.8,72.6-46.9,11.4-11.3,16.3-23.4,12.6-31.1-3.1-6.6-12.1-10-26.3-9.8-7.5.1-8.8-.2-13.8-3.1-10.6-5.9-22-7.1-37.4-3.9ZM450.2,115.93c1.2,3.4.2,7.1-2.8,10.6l-2.5,2.8-5-5-5.1-4.9,5.8-3.2c6.7-3.7,8.3-3.8,9.6-.3Z"/>
      <path class="cls-1" d="M442.3,41.83c-1.6,1.8-1.7,2.3-.5,4.6,2,3.6,4.7,4.9,7.6,3.5,4.6-2.1,2-10.1-3.3-10.1-1.1,0-2.8.9-3.8,2Z"/>
      <path class="cls-1" d="M425.3,50.23c-1.5,2.2-1.5,2.7,0,5.5,1.6,3.3,4.1,3.9,7.6,2.1,2.3-1.3,2.5-4.7.3-7.8-2-3-5.9-2.9-7.9.2Z"/>
      <path class="cls-1" d="M409,58.03c-1.7,1.7-1.5,6.4.4,8.2,3.1,3.2,8.4,1.4,8.4-2.9,0-5-5.7-8.4-8.8-5.3Z"/>
      <path class="cls-1" d="M393,66.43c-4.5,3.1-1.3,9.9,4.5,9.2,2.3-.2,2.9-.8,3.1-3.5.2-2.2-.3-3.7-1.9-5.2-2.7-2.5-2.8-2.5-5.7-.5Z"/>
      <path class="cls-1" d="M376.6,74.93c-2,1.1-2.3,5-.8,8,1.6,2.9,6.7,2.6,8.2-.6,1-2.2.8-3-.9-5.3-2.3-3.1-4-3.6-6.5-2.1Z"/>
      <path class="cls-1" d="M569.8,77.53c-5.3,2.1-30.5,14.5-40.5,20-11.4,6.3-32.7,18.6-48,27.8-3.8,2.3-13.1,7.7-20.5,12-70.7,40.7-221.8,140.8-266.4,176.4-3.9,3.1-4,3.1-6,1.3-3.8-3.4-19.8-14.6-32.1-22.4-40.4-25.5-81.7-42.5-124-51.2C21.1,239.13.8,236.53,0,237.23c-.1.2,3,2.2,7.1,4.4,13.8,7.6,31.8,21,47.2,35,3.9,3.6,37.9,37.3,75.7,75l68.7,68.7,23.3-23c12.8-12.6,59.3-58.8,103.3-102.5,112.6-112,131.6-129.8,173.5-163.2,14.6-11.6,32.6-25,62-46.3,12.2-8.9,12.6-9.2,9-7.8ZM486.7,133.13c-.8.7-6.7,5.2-13,10.1-21.7,17-47.1,39.3-84.4,74-28.9,26.9-32.4,30.3-88,84.1-18.1,17.6-40,38.6-48.5,46.9-8.5,8.2-24.2,23.5-34.8,34l-19.2,19-45.3-45c-61.7-61.4-86.9-84.7-110.3-102.1-4.9-3.6,29.6,10,47.1,18.6,27.2,13.5,64.5,36.8,87.7,55,6.4,5,12.2,9.1,12.8,9.1.5,0,11-7.6,23.3-16.8,54.4-41.2,85.7-62.9,215.2-149.4,51.1-34.2,63.3-42.1,57.4-37.5Z"/>
      <path class="cls-1" d="M63.5,90.93c-10.7,5.4-15.7,8.4-15.4,9.3.5,1.1,21.5,37.6,22.1,38.3.4.5,7.6-4.8,7.6-5.5,0-.4-4-7.4-8.8-15.5l-8.9-14.9,9.5-4.9,9.4-4.9,2.7,1.9c1.4,1,9.6,6.1,18.1,11.3l15.5,9.4,8.3-1c8.1-.9,9.8-1.8,6.5-3-.9-.4-10.7-6-21.7-12.5-18.2-10.7-28-16.2-28.8-16-.2,0-7.4,3.6-16.1,8Z"/>
      <path class="cls-1" d="M359,84.03c-1.6,1.6-1.5,3.9.4,6.6s6.1,2.7,7.8-.1c2.6-4.1-4.7-10-8.2-6.5Z"/>
      <path class="cls-1" d="M391.3,96.43c-9.9.7-31.5,2-48,2.8-68.4,3.7-85.3,4.8-111,7.2-14.8,1.4-34,3.1-42.5,3.9-48.8,4.6-84.3,9.3-92.4,12.4-1.5.6-6,4.1-10,7.7-3.9,3.6-10.5,8.9-14.6,11.7l-7.5,5.2,9.5.7c14.6,1.1,56.8,4.7,73.5,6.3,8.3.8,31.1,2.8,50.8,4.6l35.8,3.1,6.5-4.2c3.5-2.4,6.3-4.4,6.2-4.5-.2-.2-10-1.1-21.8-2s-36.8-2.9-55.5-4.5c-31.5-2.7-46.2-3.8-72-5.6l-10-.6,5-4.5c6.5-5.8,9.9-7.2,21.5-8.8,36.8-5.2,122.9-13.1,168.5-15.5,11-.5,22.6-1.2,25.8-1.4l5.8-.4-6.3,4.6c-13.5,9.7-32.5,24.2-35.5,27-3.9,3.7-4.9,7.2-3.4,12.2,2.5,8.5,11.1,12.2,23.3,10,17.1-3.1,47.4-14.2,57.5-21.2,10.6-7.3,13-19.6,5.7-30.3-1.4-2-2.4-3.8-2.2-4,.4-.2,34.2-2.3,34.5-2.1.2.2-9.4,7.9-16.4,13.3-3,2.3-.8,2.2,4.2-.1,4.4-2,34.4-21.3,37-23.7,1-1,2.2-1.1-22,.7ZM347.6,112.83c3.5,4.8,5.7,11.9,4.8,15.4-.3,1.4-2.1,3.9-3.9,5.6l-3.2,3.1-2.8-3.3c-2.8-3.4-5.8-10.4-7.8-18.4-1.4-5.5-.6-6.4,5.8-6.4,3.7,0,4.4.4,7.1,4ZM327.8,120.03c2.8,9.1,4.4,12.5,8.2,16.4,1.6,1.8,2.6,3.4,2.1,3.7-2.9,1.7-25.8,10-34.9,12.6-11.4,3.3-21.4,4.2-23.9,2.1-.8-.7-1.5-2.3-1.5-3.5,0-4.4.5-4.9,41.5-34.7,2.8-2,5.3-3.7,5.7-3.7.3-.1,1.6,3.2,2.8,7.1Z"/>
      <path class="cls-1" d="M84.6,155.53c-4.4.5-4.4.6-1.9,4.1,1,1.5,4.2,6.7,7.1,11.5,2.8,4.9,5.7,9,6.5,9.3,2.4,1,8-1.2,7.8-3-.2-3.2-12.6-22.6-14.2-22.4-.9.1-3.3.3-5.3.5Z"/>
    </g>
  </g>
</svg>